<?xml version="1.0" encoding="utf-8"?>
<!-- Generator: Adobe Illustrator 19.0.0, SVG Export Plug-In . SVG Version: 6.00 Build 0)  -->
<svg version="1.1" id="Layer_1" xmlns="http://www.w3.org/2000/svg" xmlns:xlink="http://www.w3.org/1999/xlink" x="0px" y="0px"
	 viewBox="0 0 96 191" style="enable-background:new 0 0 96 191;" xml:space="preserve">
<path id="XMLID_27_" d="M19,1v18H1V1H19 M20,0H0v20h20V0L20,0z"/>
<path id="XMLID_110_" d="M38,1v18H20V1H38 M39,0H19v20h20V0L39,0z"/>
<path id="XMLID_113_" d="M57,1v18H39V1H57 M58,0H38v20h20V0L58,0z"/>
<path id="XMLID_122_" d="M76,1v18H58V1H76 M77,0H57v20h20V0L77,0z"/>
<path id="XMLID_119_" d="M95,1v18H77V1H95 M96,0H76v20h20V0L96,0z"/>
<path id="XMLID_134_" d="M19,20v18H1V20H19 M20,19H0v20h20V19L20,19z"/>
<path id="XMLID_131_" d="M38,20v18H20V20H38 M39,19H19v20h20V19L39,19z"/>
<path id="XMLID_128_" d="M57,20v18H39V20H57 M58,19H38v20h20V19L58,19z"/>
<path id="XMLID_125_" d="M76,20v18H58V20H76 M77,19H57v20h20V19L77,19z"/>
<path id="XMLID_116_" d="M95,20v18H77V20H95 M96,19H76v20h20V19L96,19z"/>
<path id="XMLID_149_" d="M19,39v18H1V39H19 M20,38H0v20h20V38L20,38z"/>
<path id="XMLID_146_" d="M38,39v18H20V39H38 M39,38H19v20h20V38L39,38z"/>
<path id="XMLID_143_" d="M57,39v18H39V39H57 M58,38H38v20h20V38L58,38z"/>
<path id="XMLID_140_" d="M76,39v18H58V39H76 M77,38H57v20h20V38L77,38z"/>
<path id="XMLID_137_" d="M95,39v18H77V39H95 M96,38H76v20h20V38L96,38z"/>
<path id="XMLID_164_" d="M19,58v18H1V58H19 M20,57H0v20h20V57L20,57z"/>
<path id="XMLID_161_" d="M38,58v18H20V58H38 M39,57H19v20h20V57L39,57z"/>
<path id="XMLID_158_" d="M57,58v18H39V58H57 M58,57H38v20h20V57L58,57z"/>
<path id="XMLID_155_" d="M76,58v18H58V58H76 M77,57H57v20h20V57L77,57z"/>
<path id="XMLID_152_" d="M95,58v18H77V58H95 M96,57H76v20h20V57L96,57z"/>
<path id="XMLID_179_" d="M19,77v18H1V77H19 M20,76H0v20h20V76L20,76z"/>
<path id="XMLID_176_" d="M38,77v18H20V77H38 M39,76H19v20h20V76L39,76z"/>
<path id="XMLID_173_" d="M57,77v18H39V77H57 M58,76H38v20h20V76L58,76z"/>
<path id="XMLID_170_" d="M76,77v18H58V77H76 M77,76H57v20h20V76L77,76z"/>
<path id="XMLID_167_" d="M95,77v18H77V77H95 M96,76H76v20h20V76L96,76z"/>
<path id="XMLID_239_" d="M19,96v18H1V96H19 M20,95H0v20h20V95L20,95z"/>
<path id="XMLID_236_" d="M38,96v18H20V96H38 M39,95H19v20h20V95L39,95z"/>
<path id="XMLID_233_" d="M57,96v18H39V96H57 M58,95H38v20h20V95L58,95z"/>
<path id="XMLID_230_" d="M76,96v18H58V96H76 M77,95H57v20h20V95L77,95z"/>
<path id="XMLID_227_" d="M95,96v18H77V96H95 M96,95H76v20h20V95L96,95z"/>
<path id="XMLID_224_" d="M19,115v18H1v-18H19 M20,114H0v20h20V114L20,114z"/>
<path id="XMLID_221_" d="M38,115v18H20v-18H38 M39,114H19v20h20V114L39,114z"/>
<path id="XMLID_218_" d="M57,115v18H39v-18H57 M58,114H38v20h20V114L58,114z"/>
<path id="XMLID_215_" d="M76,115v18H58v-18H76 M77,114H57v20h20V114L77,114z"/>
<path id="XMLID_212_" d="M95,115v18H77v-18H95 M96,114H76v20h20V114L96,114z"/>
<path id="XMLID_209_" d="M19,134v18H1v-18H19 M20,133H0v20h20V133L20,133z"/>
<path id="XMLID_206_" d="M38,134v18H20v-18H38 M39,133H19v20h20V133L39,133z"/>
<path id="XMLID_203_" d="M57,134v18H39v-18H57 M58,133H38v20h20V133L58,133z"/>
<path id="XMLID_200_" d="M76,134v18H58v-18H76 M77,133H57v20h20V133L77,133z"/>
<path id="XMLID_197_" d="M95,134v18H77v-18H95 M96,133H76v20h20V133L96,133z"/>
<path id="XMLID_194_" d="M19,153v18H1v-18H19 M20,152H0v20h20V152L20,152z"/>
<path id="XMLID_191_" d="M38,153v18H20v-18H38 M39,152H19v20h20V152L39,152z"/>
<path id="XMLID_188_" d="M57,153v18H39v-18H57 M58,152H38v20h20V152L58,152z"/>
<path id="XMLID_185_" d="M76,153v18H58v-18H76 M77,152H57v20h20V152L77,152z"/>
<path id="XMLID_182_" d="M95,153v18H77v-18H95 M96,152H76v20h20V152L96,152z"/>
<path id="XMLID_269_" d="M19,172v18H1v-18H19 M20,171H0v20h20V171L20,171z"/>
<path id="XMLID_266_" d="M38,172v18H20v-18H38 M39,171H19v20h20V171L39,171z"/>
<path id="XMLID_263_" d="M57,172v18H39v-18H57 M58,171H38v20h20V171L58,171z"/>
<path id="XMLID_260_" d="M76,172v18H58v-18H76 M77,171H57v20h20V171L77,171z"/>
<path id="XMLID_257_" d="M95,172v18H77v-18H95 M96,171H76v20h20V171L96,171z"/>
</svg>
